<?xml version="1.0" encoding="UTF-8" standalone="no"?>
<!DOCTYPE svg PUBLIC "-//W3C//DTD SVG 1.1//EN" "http://www.w3.org/Graphics/SVG/1.1/DTD/svg11.dtd">
<svg width="100%" height="100%" viewBox="0 0 1024 1024" version="1.1" xmlns="http://www.w3.org/2000/svg" xmlns:xlink="http://www.w3.org/1999/xlink" xml:space="preserve" xmlns:serif="http://www.serif.com/" style="fill-rule:evenodd;clip-rule:evenodd;stroke-linejoin:round;stroke-miterlimit:2;">
    <g transform="matrix(1,0,0,1,-1307,0)">
        <g id="gadget" transform="matrix(1,0,0,1,1307,0)">
            <rect x="0" y="0" width="1024" height="1024" style="fill:none;"/>
            <path d="M512,0L1024,512L512,1024L0,512L512,0Z" style="fill:rgb(95,114,134);"/>
            <g transform="matrix(1.95706,0,0,1.95706,-526.994,-318.865)">
                <g transform="matrix(255.485,0,0,255.485,428.701,517.033)">
                    <path d="M0.556,-0.156C0.515,-0.134 0.474,-0.126 0.43,-0.126C0.296,-0.126 0.203,-0.219 0.203,-0.35C0.203,-0.483 0.296,-0.574 0.432,-0.574C0.503,-0.574 0.562,-0.549 0.613,-0.495L0.717,-0.591C0.649,-0.67 0.547,-0.712 0.424,-0.712C0.201,-0.712 0.039,-0.561 0.039,-0.35C0.039,-0.139 0.201,0.012 0.421,0.012C0.521,0.012 0.627,-0.019 0.704,-0.077L0.704,-0.361L0.556,-0.361L0.556,-0.156Z" style="fill:white;fill-rule:nonzero;"/>
                </g>
            </g>
        </g>
    </g>
</svg>
